# xmcd
#
# Track frame offsets: 
#        150
#        15259
#        32797
#        50612
#        61102
#        79532
#        91172
#        105010
#        117975
#        124400
#        139327
#        151962
#        162292
#        172932
#        184497
#        195477
#        208280
#        227177
#        238645
#        252200
#        266310
#        278887
#        293050
#        307470
#        319342
#        334875
#
# Disc length: 4626 seconds
#
# Revision: 0
# Processed by: cddbd v1.5.2PL0 Copyright (c) Steve Scherf et al.
# Submitted via: ExactAudioCopy v0.99pb4
#
DISCID=7212101a
DTITLE=Frank Sinatra - The Ledgendary Standards - CD 1
DYEAR=2004
DGENRE=Swing
TTITLE0=Night and Day
TTITLE1=Begin The Beguine
TTITLE2=I Get A Kick Out Of You
TTITLE3=I Love You
TTITLE4=Easy To Love - I've Got You Under My Skin
TTITLE5=Don't Fence Me In
TTITLE6=I Concentrate On You
TTITLE7=Why Shouldn't I?
TTITLE8=Just One Of Those Things
TTITLE9=Why Can't You Behave
TTITLE10=So In Love
TTITLE11=You'd Be So Nice To Come Home To
TTITLE12=Cherry Pies Ought To Be You
TTITLE13=You Do Something To Me
TTITLE14=I Am Loved
TTITLE15=You Don't Remind Me
TTITLE16=Begin The Beguine
TTITLE17=Night And Day
TTITLE18=You Go To My Head
TTITLE19=These Foolish Things
TTITLE20=I Don't Know Why
TTITLE21=Try A Little Tenderness
TTITLE22=A Ghost Of A Chance
TTITLE23=Paradise
TTITLE24=Mam'selle
TTITLE25=The Nearness Of You
EXTD=
EXTT0=
EXTT1=
EXTT2=
EXTT3=
EXTT4=
EXTT5=
EXTT6=
EXTT7=
EXTT8=
EXTT9=
EXTT10=
EXTT11=
EXTT12=
EXTT13=
EXTT14=
EXTT15=
EXTT16=
EXTT17=
EXTT18=
EXTT19=
EXTT20=
EXTT21=
EXTT22=
EXTT23=
EXTT24=
EXTT25=
PLAYORDER=
